<svg id="Layer_1" data-name="Layer 1" xmlns="http://www.w3.org/2000/svg" viewBox="0 0 192.43 192.26"><defs><style>.cls-1{fill:#e1e1e1;}.cls-2{fill:#192e35;}.cls-3{fill:#67c5ad;}.cls-4{fill:#fff;}</style></defs><ellipse class="cls-1" cx="96.21" cy="96.01" rx="96.21" ry="96.01"/><path class="cls-2" d="M126.34,156.6H75.74a6.52,6.52,0,0,1-6.52-6.53h0a6.52,6.52,0,0,1,6.52-6.52h50.6a6.53,6.53,0,0,1,6.53,6.52h0A6.53,6.53,0,0,1,126.34,156.6Z" transform="translate(-3.79 -3.87)"/><rect class="cls-2" x="95.67" y="33.57" width="4.44" height="22.47"/><circle class="cls-3" cx="32.29" cy="110.39" r="13.06"/><circle class="cls-3" cx="164.14" cy="109.53" r="13.06"/><path class="cls-3" d="M103.62,55.22s53.1-.64,61.51,45.35-36.5,46.85-49.42,47.73c-5.85.39-18.38.43-29.44.24-24.48-.43-41.78-5.16-47.66-27.87a43.48,43.48,0,0,1-1.33-8.14C35.73,87.64,52.58,54,103.62,55.22Z" transform="translate(-3.79 -3.87)"/><path class="cls-2" d="M65.1,125.27l77.15,1.2a14.64,14.64,0,0,0,14.87-14.41h0A14.65,14.65,0,0,0,142.7,97.19L65.56,96A14.64,14.64,0,0,0,50.69,110.4h0A14.64,14.64,0,0,0,65.1,125.27Z" transform="translate(-3.79 -3.87)"/><path class="cls-4" d="M126.24,110.46A4.7,4.7,0,1,0,130,105,4.7,4.7,0,0,0,126.24,110.46Z" transform="translate(-3.79 -3.87)"/><path class="cls-4" d="M72.34,109.6a4.7,4.7,0,1,0,3.71-5.51A4.7,4.7,0,0,0,72.34,109.6Z" transform="translate(-3.79 -3.87)"/><path class="cls-3" d="M109,37a7.33,7.33,0,1,1-7.32-7.33A7.32,7.32,0,0,1,109,37Z" transform="translate(-3.79 -3.87)"/><path class="cls-4" d="M112.73,108.3c.12,0,.33.36.47,1.12a7.44,7.44,0,0,1-.29,3.26,9.74,9.74,0,0,1-2.57,4.18,8.89,8.89,0,0,1-11.44,1,9.81,9.81,0,0,1-3.3-3.65,7.32,7.32,0,0,1-.86-3.15c0-.78.12-1.19.25-1.19.34,0,.44,1.62,1.85,3.6a9.7,9.7,0,0,0,3,2.8,7.57,7.57,0,0,0,9.18-.84,9.62,9.62,0,0,0,2.5-3.3C112.59,110,112.39,108.33,112.73,108.3Z" transform="translate(-3.79 -3.87)"/><path class="cls-2" d="M165,99.07a6.74,6.74,0,0,1,.42,1.13c.12.37.27.83.4,1.37s.31,1.14.43,1.83a35.39,35.39,0,0,1,.68,4.85,40.46,40.46,0,0,1-.05,6,41.4,41.4,0,0,1-1,5.92,35,35,0,0,1-1.52,4.66c-.24.65-.52,1.22-.75,1.72a13.67,13.67,0,0,1-.63,1.27,6.08,6.08,0,0,1-.62,1,8.21,8.21,0,0,1,.47-1.12c.17-.35.37-.78.57-1.29s.47-1.08.69-1.74a39.4,39.4,0,0,0,1.43-4.64,40.49,40.49,0,0,0,1-11.81,40.12,40.12,0,0,0-.59-4.83c-.1-.68-.26-1.29-.37-1.83s-.23-1-.33-1.37A6.38,6.38,0,0,1,165,99.07Z" transform="translate(-3.79 -3.87)"/><path class="cls-2" d="M39.2,99.36a7.52,7.52,0,0,0-.41,1.13c-.13.37-.27.82-.41,1.36s-.31,1.15-.43,1.83a37.43,37.43,0,0,0-.68,4.86,43.22,43.22,0,0,0,0,6,40.92,40.92,0,0,0,1,5.92,37.62,37.62,0,0,0,1.52,4.66c.24.66.53,1.22.75,1.73s.45.93.64,1.27a7.1,7.1,0,0,0,.61,1,7,7,0,0,0-.47-1.11c-.17-.35-.37-.78-.57-1.29s-.47-1.08-.69-1.74a41,41,0,0,1-1.43-4.65,45.38,45.38,0,0,1-1-5.86,42.73,42.73,0,0,1-.08-6,40.36,40.36,0,0,1,.58-4.82c.1-.69.26-1.29.38-1.83s.22-1,.33-1.38A7,7,0,0,0,39.2,99.36Z" transform="translate(-3.79 -3.87)"/><path class="cls-3" d="M50.68,182.32S66.44,166.9,99.46,166.9s49.87,15.42,49.87,15.42S103.35,213.39,50.68,182.32Z" transform="translate(-3.79 -3.87)"/></svg>