<svg id="Layer_1" data-name="Layer 1" xmlns="http://www.w3.org/2000/svg" viewBox="0 0 192.43 192.26"><defs><style>.cls-1{fill:#e1e1e1;}.cls-2{fill:#192e35;}.cls-3{fill:#67c5ad;}.cls-4{fill:#fff;}.cls-5{fill:#385a65;}.cls-6{fill:#fbbf9e;}.cls-7{fill:#f7996e;}</style></defs><ellipse class="cls-1" cx="96.21" cy="96.01" rx="96.21" ry="96.01"/><path class="cls-2" d="M126.34,156.6H75.74a6.52,6.52,0,0,1-6.52-6.53h0a6.52,6.52,0,0,1,6.52-6.52h50.6a6.53,6.53,0,0,1,6.53,6.52h0A6.53,6.53,0,0,1,126.34,156.6Z" transform="translate(-3.79 -3.87)"/><rect class="cls-2" x="95.67" y="33.57" width="4.44" height="22.47"/><circle class="cls-3" cx="32.29" cy="110.39" r="13.06"/><circle class="cls-3" cx="164.14" cy="109.53" r="13.06"/><path class="cls-3" d="M103.62,55.22s53.1-.64,61.51,45.35-36.5,46.85-49.42,47.73c-5.85.39-18.38.43-29.44.24-24.48-.43-41.78-5.16-47.66-27.87a43.48,43.48,0,0,1-1.33-8.14C35.73,87.64,52.58,54,103.62,55.22Z" transform="translate(-3.79 -3.87)"/><path class="cls-2" d="M65.1,125.27l77.15,1.2a14.64,14.64,0,0,0,14.87-14.41h0A14.65,14.65,0,0,0,142.7,97.19L65.56,96A14.64,14.64,0,0,0,50.69,110.4h0A14.64,14.64,0,0,0,65.1,125.27Z" transform="translate(-3.79 -3.87)"/><path class="cls-4" d="M126.24,110.46A4.7,4.7,0,1,0,130,105,4.7,4.7,0,0,0,126.24,110.46Z" transform="translate(-3.79 -3.87)"/><path class="cls-4" d="M72.34,109.6a4.7,4.7,0,1,0,3.71-5.51A4.7,4.7,0,0,0,72.34,109.6Z" transform="translate(-3.79 -3.87)"/><path class="cls-3" d="M109,37a7.33,7.33,0,1,1-7.32-7.33A7.32,7.32,0,0,1,109,37Z" transform="translate(-3.79 -3.87)"/><path class="cls-4" d="M112.73,108.3c.12,0,.33.36.47,1.12a7.44,7.44,0,0,1-.29,3.26,9.74,9.74,0,0,1-2.57,4.18,8.89,8.89,0,0,1-11.44,1,9.81,9.81,0,0,1-3.3-3.65,7.32,7.32,0,0,1-.86-3.15c0-.78.12-1.19.25-1.19.34,0,.44,1.62,1.85,3.6a9.7,9.7,0,0,0,3,2.8,7.57,7.57,0,0,0,9.18-.84,9.62,9.62,0,0,0,2.5-3.3C112.59,110,112.39,108.33,112.73,108.3Z" transform="translate(-3.79 -3.87)"/><path class="cls-2" d="M165,99.07a6.74,6.74,0,0,1,.42,1.13c.12.37.27.83.4,1.37s.31,1.14.43,1.83a35.39,35.39,0,0,1,.68,4.85,40.46,40.46,0,0,1-.05,6,41.4,41.4,0,0,1-1,5.92,35,35,0,0,1-1.52,4.66c-.24.65-.52,1.22-.75,1.72a13.67,13.67,0,0,1-.63,1.27,6.08,6.08,0,0,1-.62,1,8.21,8.21,0,0,1,.47-1.12c.17-.35.37-.78.57-1.29s.47-1.08.69-1.74a39.4,39.4,0,0,0,1.43-4.64,40.49,40.49,0,0,0,1-11.81,40.12,40.12,0,0,0-.59-4.83c-.1-.68-.26-1.29-.37-1.83s-.23-1-.33-1.37A6.38,6.38,0,0,1,165,99.07Z" transform="translate(-3.79 -3.87)"/><path class="cls-2" d="M39.2,99.36a7.52,7.52,0,0,0-.41,1.13c-.13.37-.27.82-.41,1.36s-.31,1.15-.43,1.83a37.43,37.43,0,0,0-.68,4.86,43.22,43.22,0,0,0,0,6,40.92,40.92,0,0,0,1,5.92,37.62,37.62,0,0,0,1.52,4.66c.24.66.53,1.22.75,1.73s.45.93.64,1.27a7.1,7.1,0,0,0,.61,1,7,7,0,0,0-.47-1.11c-.17-.35-.37-.78-.57-1.29s-.47-1.08-.69-1.74a41,41,0,0,1-1.43-4.65,45.38,45.38,0,0,1-1-5.86,42.73,42.73,0,0,1-.08-6,40.36,40.36,0,0,1,.58-4.82c.1-.69.26-1.29.38-1.83s.22-1,.33-1.38A7,7,0,0,0,39.2,99.36Z" transform="translate(-3.79 -3.87)"/><path class="cls-3" d="M50.68,182.32S66.44,166.9,99.46,166.9s49.87,15.42,49.87,15.42S103.35,213.39,50.68,182.32Z" transform="translate(-3.79 -3.87)"/><ellipse class="cls-1" cx="96.21" cy="95.92" rx="96.12" ry="95.92"/><path class="cls-5" d="M144.88,123.8l-25.16-2.14L58.25,132,51,178.26l1,5.38a96.63,96.63,0,0,0,91.12,2.09l1.73-61.93" transform="translate(-3.79 -3.87)"/><path class="cls-5" d="M71.4,131.28a32.86,32.86,0,0,0-31.88,14A179.16,179.16,0,0,0,28.1,163.45c10,10.87,18.13,19.14,32,24Z" transform="translate(-3.79 -3.87)"/><path class="cls-5" d="M144.88,123.8s16.63,2,23.09,16.21,7.93,18.64,7.93,18.64c-8.61,10.34-19.54,22.59-33,27.18,0,0-3.06-35.71-3.47-45.82C139,128.94,138.6,123.48,144.88,123.8Z" transform="translate(-3.79 -3.87)"/><path class="cls-2" d="M129.66,32.94c-9-10.95-21-17.26-35.23-17.49-8-.14-11.32,1.52-17.08,3.07A25.32,25.32,0,0,0,63,28c-4.08,5.78-7.51,12.26-8.28,19.29-.8,7.22-1.59,14.5-1,21.74s2.52,14.55,6.79,20.43l18.48,3.2c10.2.35,20.55.68,30.49-1.64S129,83.39,134.31,74.7C141.71,62.62,138.64,43.9,129.66,32.94Z" transform="translate(-3.79 -3.87)"/><path class="cls-2" d="M147.56,86.47a13.74,13.74,0,0,0-6.25-10.38c-3.61-2.13-8.66-1.91-11.66,1l-2.91,3.45a11.91,11.91,0,0,0-6.86,12,13,13,0,0,0,9.06,10.67,14.49,14.49,0,0,0,13.78-3.32A16.12,16.12,0,0,0,147.56,86.47Z" transform="translate(-3.79 -3.87)"/><path class="cls-5" d="M143.9,98.9a6.17,6.17,0,0,0,1-3.67c-.16-2.36-1.88-5.45-4.23-8.29A25.26,25.26,0,0,0,133.26,81c-2.16-1.16-3.65-1.58-3.6-1.73a10,10,0,0,1,3.89,1.16,22.55,22.55,0,0,1,10.8,10.44,10,10,0,0,1,1.19,4.32,5.24,5.24,0,0,1-.83,2.93C144.29,98.73,143.94,98.94,143.9,98.9Z" transform="translate(-3.79 -3.87)"/><path class="cls-6" d="M79.07,128s.1-17.13.1-17.1S64.1,109.21,59.94,89.94c-2.07-9.58-2.46-25.45-2.35-38.45.09-11.71,10.08-27.64,24.56-27.69l6.43-.75,24.64,9.77a6.87,6.87,0,0,1,6.51,6.6l.74,82.3-11.29,15.82c-9.35,13.12-30,6.55-30.11-9.57Z" transform="translate(-3.79 -3.87)"/><path class="cls-7" d="M88.9,85.43a4.11,4.11,0,0,0-1.42-2.53,4.22,4.22,0,0,0-5.1-.29,5.64,5.64,0,0,0-2.13,5.28h0A5.09,5.09,0,0,0,83.91,90q.34,0,.69,0a4.6,4.6,0,0,0,3.09-1.23A4.06,4.06,0,0,0,88.9,85.43Z" transform="translate(-3.79 -3.87)"/><path class="cls-2" d="M66.47,64.91A2.51,2.51,0,0,0,69,67.3a2.39,2.39,0,0,0,2.45-2.39,2.5,2.5,0,0,0-2.54-2.39A2.41,2.41,0,0,0,66.47,64.91Z" transform="translate(-3.79 -3.87)"/><path class="cls-2" d="M62.38,58.7c.33.31,2.15-1.19,4.84-1.33s4.73,1.09,5,.75c.14-.16-.21-.73-1.1-1.3a6.91,6.91,0,0,0-4-1,6.71,6.71,0,0,0-3.83,1.47C62.47,58,62.22,58.56,62.38,58.7Z" transform="translate(-3.79 -3.87)"/><path class="cls-2" d="M79.28,79c0-.15-1.68-.35-4.41-.54-.69,0-1.35-.14-1.49-.6a3.45,3.45,0,0,1,.35-2c.55-1.7,1.13-3.47,1.74-5.33,2.41-7.58,4.11-13.8,3.81-13.89s-2.51,6-4.92,13.55L72.7,75.51a4,4,0,0,0-.21,2.71,1.74,1.74,0,0,0,1.19.94,4.54,4.54,0,0,0,1.17.1C77.59,79.26,79.28,79.18,79.28,79Z" transform="translate(-3.79 -3.87)"/><path class="cls-7" d="M79.17,110.87a49.76,49.76,0,0,0,25.7-8.37s-6.21,13.85-25.8,13.1Z" transform="translate(-3.79 -3.87)"/><path class="cls-2" d="M87.29,80.45c-.44,0-.28,2.91-2.67,5.11s-5.5,2-5.5,2.46c0,.19.72.53,2,.49a7.25,7.25,0,0,0,4.61-1.89,6.28,6.28,0,0,0,2-4.28C87.86,81.12,87.49,80.42,87.29,80.45Z" transform="translate(-3.79 -3.87)"/><path class="cls-2" d="M62.92,48.59c.49.63,2.52.08,4.94.15s4.44.59,4.94,0c.22-.3-.08-.93-1-1.54a7.29,7.29,0,0,0-4-1.16,7.17,7.17,0,0,0-4,1.06C63,47.67,62.7,48.28,62.92,48.59Z" transform="translate(-3.79 -3.87)"/><path class="cls-2" d="M96,64.73a2.49,2.49,0,0,1-2.37,2.56A2.39,2.39,0,0,1,91,65.09a2.5,2.5,0,0,1,2.37-2.56A2.39,2.39,0,0,1,96,64.73Z" transform="translate(-3.79 -3.87)"/><path class="cls-2" d="M99.22,57.74c-.3.33-2.22-1-4.91-1s-4.64,1.43-4.94,1.11c-.15-.15.16-.74,1-1.38a6.82,6.82,0,0,1,3.94-1.29,6.57,6.57,0,0,1,3.92,1.19C99.08,57,99.37,57.59,99.22,57.74Z" transform="translate(-3.79 -3.87)"/><path class="cls-2" d="M100.77,52c-.52.62-2.61,0-5.11,0s-4.6.49-5.1-.14c-.22-.31.1-.92,1-1.52a8.13,8.13,0,0,1,8.22.09C100.7,51.05,101,51.67,100.77,52Z" transform="translate(-3.79 -3.87)"/><path class="cls-6" d="M116.38,72.09c-.08-1.45,1.41-5,2.83-5.26,3.8-.8,10.71-.87,11.31,8.82C131.33,88.9,117.84,87,117.79,86.6S116.64,77.08,116.38,72.09Z" transform="translate(-3.79 -3.87)"/><path class="cls-7" d="M121.15,81.54c.06-.05.24.15.65.3a2.33,2.33,0,0,0,1.73-.07c1.37-.6,2.41-2.89,2.33-5.29a7.56,7.56,0,0,0-.85-3.26,2.71,2.71,0,0,0-1.85-1.67,1.19,1.19,0,0,0-1.33.72c-.15.38,0,.64-.12.67s-.3-.21-.23-.76a1.45,1.45,0,0,1,.48-.86,1.74,1.74,0,0,1,1.25-.42,3.27,3.27,0,0,1,2.55,1.91,7.86,7.86,0,0,1,1,3.64c.08,2.68-1.14,5.26-3,5.93a2.47,2.47,0,0,1-2.13-.22C121.2,81.86,121.11,81.56,121.15,81.54Z" transform="translate(-3.79 -3.87)"/><path class="cls-2" d="M119.76,66.87l-3.38,3.49c-14.56-13.91-43-48.75-41.44-46.67,0,0,10-4.1,20.81-2.26s31.37,7.25,31.06,20S119.76,66.87,119.76,66.87Z" transform="translate(-3.79 -3.87)"/><path class="cls-5" d="M139.05,63.94a3.65,3.65,0,0,0-.21-.76,12.56,12.56,0,0,0-.9-2.09,19.15,19.15,0,0,0-5.55-6.23,36.2,36.2,0,0,0-11.17-5.36c-4.44-1.45-9.45-2.57-14.36-4.67A65.23,65.23,0,0,1,93.74,37.5a68,68,0,0,1-9.26-8.08,73.09,73.09,0,0,1-5.35-6.34c-.54-.75-1-1.35-1.33-1.83a3.27,3.27,0,0,0-.5-.61,3.38,3.38,0,0,0,.38.69c.28.44.67,1.09,1.23,1.9a61.51,61.51,0,0,0,5.22,6.52A65.56,65.56,0,0,0,93.37,38a63.73,63.73,0,0,0,13.23,7.45c5,2.13,10,3.24,14.43,4.64a36.89,36.89,0,0,1,11.07,5.15,19.87,19.87,0,0,1,5.61,6C138.68,62.91,139,64,139.05,63.94Z" transform="translate(-3.79 -3.87)"/><path class="cls-5" d="M135.18,66a6.88,6.88,0,0,0-.51-2.9,13.55,13.55,0,0,0-5-6.23c-2.77-2.07-6.73-3.35-11.08-4.34a65.36,65.36,0,0,1-13.77-4.36,58,58,0,0,1-12.27-7.56,59.71,59.71,0,0,1-8.42-8.25A64,64,0,0,1,79.45,26c-.45-.76-.83-1.37-1.12-1.86a3.08,3.08,0,0,0-.44-.63,3.39,3.39,0,0,0,.32.7c.27.5.6,1.14,1,1.92a53.64,53.64,0,0,0,4.54,6.6,57.7,57.7,0,0,0,8.39,8.44,57.71,57.71,0,0,0,12.39,7.69,64,64,0,0,0,13.91,4.35c4.34,1,8.22,2.16,10.94,4.12a13.7,13.7,0,0,1,5,5.94A15.26,15.26,0,0,1,135.18,66Z" transform="translate(-3.79 -3.87)"/><path class="cls-2" d="M143,185.73c.24,0,.44-5.67.44-12.66s-.2-12.67-.44-12.67-.45,5.67-.45,12.67S142.7,185.73,143,185.73Z" transform="translate(-3.79 -3.87)"/><path class="cls-2" d="M52,184a27,27,0,0,0-.15-4.5,50.18,50.18,0,0,1,.37-10.74,53.24,53.24,0,0,1,3.08-10.32,26.53,26.53,0,0,0,1.56-4.24,19.49,19.49,0,0,0-2.14,4,42.87,42.87,0,0,0-3.38,10.42,41.08,41.08,0,0,0-.12,10.93A19.7,19.7,0,0,0,52,184Z" transform="translate(-3.79 -3.87)"/></svg>